<svg width="230" height="48" viewBox="0 0 230 48" fill="none" xmlns="http://www.w3.org/2000/svg">
<path d="M222.054 32.8204C221.547 34.0038 220.92 35.1322 220.183 36.1882C219.198 37.5944 218.39 38.566 217.77 39.1069C216.807 39.9905 215.773 40.4452 214.668 40.4709C213.876 40.4709 212.919 40.2454 211.804 39.787C210.686 39.3305 209.659 39.1069 208.719 39.1069C207.734 39.1069 206.678 39.3305 205.547 39.787C204.418 40.2454 203.505 40.4855 202.806 40.5075C201.748 40.5534 200.691 40.0877 199.636 39.1069C198.964 38.5202 198.122 37.5119 197.112 36.0855C196.03 34.5657 195.141 32.7965 194.444 30.7854C193.698 28.6092 193.324 26.5045 193.324 24.4659C193.324 22.132 193.828 20.1172 194.839 18.4305C195.603 17.1059 196.695 16.0003 198.01 15.2204C199.307 14.4424 200.788 14.0236 202.3 14.0067C203.144 14.0067 204.249 14.267 205.619 14.7804C206.988 15.2937 207.868 15.554 208.251 15.554C208.541 15.554 209.514 15.2479 211.172 14.641C212.736 14.0782 214.056 13.8454 215.137 13.937C218.071 14.1735 220.272 15.3285 221.737 17.4112C219.116 19.0007 217.819 21.2245 217.845 24.079C217.867 26.3029 218.676 28.1527 220.26 29.6212C220.96 30.2914 221.777 30.8276 222.67 31.2034C222.476 31.7662 222.271 32.3034 222.054 32.8204ZM215.332 6.36354C215.332 8.10521 214.694 9.73321 213.427 11.2384C211.894 13.0277 210.042 14.0635 208.035 13.9004C208.009 13.6814 207.996 13.461 207.996 13.2404C207.996 11.5665 208.722 9.77721 210.019 8.31237C210.664 7.57171 211.485 6.95387 212.481 6.46254C213.474 5.97854 214.413 5.71087 215.297 5.66504C215.321 5.89971 215.332 6.13254 215.332 6.36354Z" fill="black"/>
<path fill-rule="evenodd" clip-rule="evenodd" d="M95 24.1228C95 35.0605 102.944 44.1557 113.333 46V30.1105H107.833V24H113.333V19.1105C113.333 13.6105 116.877 10.5562 121.889 10.5562C123.477 10.5562 125.19 10.8 126.777 11.0438V16.6667H123.967C121.277 16.6667 120.667 18.0105 120.667 19.7228V24H126.533L125.556 30.1105H120.667V46C131.056 44.1557 139 35.0623 139 24.1228C139 11.955 129.1 2 117 2C104.9 2 95 11.955 95 24.1228Z" fill="#1877F2"/>
<path d="M43.611 20.083H42V20H24V28H35.303C33.654 32.657 29.223 36 24 36C17.373 36 12 30.627 12 24C12 17.373 17.373 12 24 12C27.059 12 29.842 13.154 31.961 15.039L37.618 9.382C34.046 6.053 29.268 4 24 4C12.955 4 4 12.955 4 24C4 35.045 12.955 44 24 44C35.045 44 44 35.045 44 24C44 22.659 43.862 21.35 43.611 20.083Z" fill="#FFC107"/>
<path d="M6.30469 14.691L12.8757 19.51C14.6537 15.108 18.9597 12 23.9987 12C27.0577 12 29.8407 13.154 31.9597 15.039L37.6167 9.382C34.0447 6.053 29.2667 4 23.9987 4C16.3167 4 9.65469 8.337 6.30469 14.691Z" fill="#FF3D00"/>
<path d="M24.0003 44.0002C29.1663 44.0002 33.8603 42.0232 37.4093 38.8082L31.2193 33.5702C29.1439 35.1486 26.6078 36.0023 24.0003 36.0002C18.7983 36.0002 14.3813 32.6832 12.7173 28.0542L6.19531 33.0792C9.50531 39.5562 16.2273 44.0002 24.0003 44.0002Z" fill="#4CAF50"/>
<path d="M43.611 20.083H42V20H24V28H35.303C34.5142 30.2164 33.0934 32.1532 31.216 33.571L31.219 33.569L37.409 38.807C36.971 39.205 44 34 44 24C44 22.659 43.862 21.35 43.611 20.083Z" fill="#1976D2"/>
</svg>
